<?xml version="1.0" encoding="UTF-8" standalone="no"?>
<!-- Created with Inkscape (http://www.inkscape.org/) -->

<svg
   xmlns:dc="http://purl.org/dc/elements/1.1/"
   xmlns:cc="http://creativecommons.org/ns#"
   xmlns:rdf="http://www.w3.org/1999/02/22-rdf-syntax-ns#"
   xmlns:svg="http://www.w3.org/2000/svg"
   xmlns="http://www.w3.org/2000/svg"
   xmlns:sodipodi="http://sodipodi.sourceforge.net/DTD/sodipodi-0.dtd"
   xmlns:inkscape="http://www.inkscape.org/namespaces/inkscape"
   version="1.1"
   id="svg2"
   xml:space="preserve"
   width="758.66669"
   height="196"
   viewBox="0 0 758.66669 196"
   sodipodi:docname="logo.svg"
   inkscape:version="0.92.2 2405546, 2018-03-11"><metadata
     id="metadata8"><rdf:RDF><cc:Work
         rdf:about=""><dc:format>image/svg+xml</dc:format><dc:type
           rdf:resource="http://purl.org/dc/dcmitype/StillImage" /><dc:title /></cc:Work></rdf:RDF></metadata><defs
     id="defs6"><clipPath
       clipPathUnits="userSpaceOnUse"
       id="clipPath18"><path
         d="M 0,147 H 569 V 0 H 0 Z"
         id="path16"
         inkscape:connector-curvature="0" /></clipPath></defs><sodipodi:namedview
     pagecolor="#ffffff"
     bordercolor="#666666"
     borderopacity="1"
     objecttolerance="10"
     gridtolerance="10"
     guidetolerance="10"
     inkscape:pageopacity="0"
     inkscape:pageshadow="2"
     inkscape:window-width="1920"
     inkscape:window-height="1022"
     id="namedview4"
     showgrid="false"
     inkscape:zoom="2.4200351"
     inkscape:cx="127.17486"
     inkscape:cy="133.02074"
     inkscape:window-x="0"
     inkscape:window-y="0"
     inkscape:window-maximized="1"
     inkscape:current-layer="g10" /><g
     id="g10"
     inkscape:groupmode="layer"
     inkscape:label="logo"
     transform="matrix(1.3333333,0,0,-1.3333333,0,196)"><g
       id="g20"
       transform="translate(162.8588,80.1149)"><path
         d="m 0,0 c -1.988,0 -3.598,-0.556 -4.83,-1.67 -1.233,-1.113 -2.127,-2.683 -2.684,-4.711 v -15.027 c 0.755,-0.437 1.67,-0.765 2.743,-0.984 1.074,-0.219 2.187,-0.328 3.34,-0.328 2.703,0 4.86,0.954 6.47,2.862 1.61,1.909 2.415,4.89 2.415,8.945 0,1.551 -0.139,3.002 -0.418,4.353 C 6.758,-5.208 6.321,-4.055 5.724,-3.101 5.128,-2.147 4.363,-1.392 3.429,-0.835 2.495,-0.278 1.352,0 0,0 m -12.284,15.385 h 4.77 V 0.536 h 0.239 c 0.914,1.153 2.077,2.048 3.488,2.684 1.412,0.636 2.952,0.954 4.622,0.954 3.856,0 6.748,-1.232 8.676,-3.697 1.928,-2.465 2.892,-6.281 2.892,-11.449 0,-5.208 -1.272,-9.164 -3.816,-11.867 -2.545,-2.703 -6.122,-4.055 -10.734,-4.055 -2.226,0 -4.244,0.239 -6.053,0.716 -1.809,0.477 -3.17,0.994 -4.084,1.55 z"
         style="fill:#485683;fill-opacity:1;fill-rule:nonzero;stroke:none"
         id="path22"
         inkscape:connector-curvature="0" /></g><g
       id="g24"
       transform="translate(193.2448,80.1149)"><path
         d="M 0,0 C -2.345,0 -4.224,-0.616 -5.635,-1.849 -7.046,-3.081 -7.891,-5.188 -8.169,-8.17 H 6.619 c 0,3.022 -0.576,5.139 -1.729,6.351 C 3.737,-0.606 2.107,0 0,0 M 10.257,-23.972 C 9.064,-24.926 7.563,-25.681 5.755,-26.238 3.946,-26.795 2.028,-27.073 0,-27.073 c -2.266,0 -4.234,0.368 -5.903,1.103 -1.67,0.736 -3.042,1.789 -4.115,3.161 -1.073,1.371 -1.869,3.011 -2.386,4.919 -0.516,1.909 -0.774,4.055 -0.774,6.441 0,5.088 1.132,8.964 3.399,11.628 2.266,2.663 5.506,3.995 9.719,3.995 1.352,0 2.704,-0.149 4.055,-0.447 C 5.347,3.429 6.56,2.862 7.633,2.027 8.707,1.193 9.581,0.01 10.257,-1.52 c 0.676,-1.531 1.013,-3.549 1.013,-6.053 0,-1.312 -0.118,-2.764 -0.357,-4.354 H -8.229 c 0,-1.749 0.179,-3.299 0.537,-4.651 0.357,-1.351 0.914,-2.494 1.67,-3.429 0.755,-0.934 1.739,-1.65 2.951,-2.147 1.213,-0.497 2.693,-0.745 4.443,-0.745 1.351,0 2.703,0.239 4.054,0.716 1.353,0.477 2.366,1.033 3.042,1.67 z"
         style="fill:#485683;fill-opacity:1;fill-rule:nonzero;stroke:none"
         id="path26"
         inkscape:connector-curvature="0" /></g><g
       id="g28"
       transform="translate(207.4005,83.5732)"><path
         d="M 0,0 H 4.651 V 5.904 L 9.422,7.275 V 0 h 8.109 V -4.174 H 9.422 v -16.518 c 0,-2.067 0.258,-3.528 0.775,-4.383 0.517,-0.855 1.391,-1.282 2.624,-1.282 1.033,0 1.908,0.109 2.623,0.328 0.716,0.219 1.511,0.507 2.386,0.865 l 1.073,-3.638 c -1.073,-0.517 -2.246,-0.934 -3.519,-1.252 -1.271,-0.318 -2.643,-0.477 -4.114,-0.477 -2.425,0 -4.134,0.686 -5.128,2.057 -0.994,1.371 -1.491,3.667 -1.491,6.887 V -4.174 H 0 Z"
         style="fill:#485683;fill-opacity:1;fill-rule:nonzero;stroke:none"
         id="path30"
         inkscape:connector-curvature="0" /></g><g
       id="g32"
       transform="translate(228.9895,83.5732)"><path
         d="M 0,0 H 4.651 V 5.904 L 9.422,7.275 V 0 h 8.109 V -4.174 H 9.422 v -16.518 c 0,-2.067 0.258,-3.528 0.775,-4.383 0.517,-0.855 1.391,-1.282 2.624,-1.282 1.033,0 1.908,0.109 2.623,0.328 0.716,0.219 1.511,0.507 2.385,0.865 l 1.074,-3.638 c -1.074,-0.517 -2.246,-0.934 -3.519,-1.252 -1.271,-0.318 -2.643,-0.477 -4.114,-0.477 -2.425,0 -4.134,0.686 -5.128,2.057 -0.994,1.371 -1.491,3.667 -1.491,6.887 V -4.174 H 0 Z"
         style="fill:#485683;fill-opacity:1;fill-rule:nonzero;stroke:none"
         id="path34"
         inkscape:connector-curvature="0" /></g><g
       id="g36"
       transform="translate(263.4111,80.1149)"><path
         d="M 0,0 C -2.346,0 -4.224,-0.616 -5.635,-1.849 -7.046,-3.081 -7.891,-5.188 -8.169,-8.17 H 6.619 c 0,3.022 -0.576,5.139 -1.729,6.351 C 3.737,-0.606 2.107,0 0,0 M 10.257,-23.972 C 9.064,-24.926 7.563,-25.681 5.755,-26.238 3.946,-26.795 2.027,-27.073 0,-27.073 c -2.266,0 -4.234,0.368 -5.904,1.103 -1.669,0.736 -3.041,1.789 -4.114,3.161 -1.073,1.371 -1.869,3.011 -2.386,4.919 -0.516,1.909 -0.775,4.055 -0.775,6.441 0,5.088 1.133,8.964 3.399,11.628 2.266,2.663 5.507,3.995 9.72,3.995 1.352,0 2.704,-0.149 4.055,-0.447 1.352,-0.298 2.564,-0.865 3.638,-1.7 1.073,-0.834 1.948,-2.017 2.624,-3.547 0.675,-1.531 1.013,-3.549 1.013,-6.053 0,-1.312 -0.119,-2.764 -0.357,-4.354 H -8.229 c 0,-1.749 0.179,-3.299 0.537,-4.651 0.357,-1.351 0.914,-2.494 1.669,-3.429 0.755,-0.934 1.74,-1.65 2.952,-2.147 1.212,-0.497 2.693,-0.745 4.443,-0.745 1.351,0 2.703,0.239 4.054,0.716 1.352,0.477 2.366,1.033 3.042,1.67 z"
         style="fill:#485683;fill-opacity:1;fill-rule:nonzero;stroke:none"
         id="path38"
         inkscape:connector-curvature="0" /></g><g
       id="g40"
       transform="translate(294.882,78.9819)"><path
         d="m 0,0 c -1.192,0.397 -2.326,0.596 -3.399,0.596 -1.71,0 -3.061,-0.467 -4.055,-1.401 -0.994,-0.935 -1.61,-2.117 -1.848,-3.548 v -20.871 h -4.771 V 4.591 h 3.339 L -9.839,0.954 H -9.6 c 0.755,1.352 1.659,2.395 2.713,3.131 1.053,0.735 2.395,1.103 4.025,1.103 1.153,0 2.445,-0.199 3.876,-0.597 z"
         style="fill:#485683;fill-opacity:1;fill-rule:nonzero;stroke:none"
         id="path42"
         inkscape:connector-curvature="0" /></g><g
       id="g44"
       transform="translate(320.0317,55.7253)"><path
         d="m 0,0 c -1.193,-0.874 -2.604,-1.541 -4.234,-1.998 -1.63,-0.457 -3.339,-0.686 -5.128,-0.686 -2.306,0 -4.254,0.368 -5.844,1.104 -1.59,0.735 -2.892,1.789 -3.906,3.16 -1.014,1.372 -1.749,3.022 -2.206,4.95 -0.457,1.928 -0.686,4.065 -0.686,6.41 0,5.049 1.113,8.915 3.339,11.598 2.227,2.684 5.427,4.026 9.601,4.026 1.908,0 3.529,-0.15 4.86,-0.447 1.332,-0.299 2.534,-0.726 3.608,-1.283 L -1.968,22.72 c -0.914,0.517 -1.928,0.924 -3.041,1.222 -1.113,0.298 -2.306,0.448 -3.578,0.448 -5.645,0 -8.468,-3.817 -8.468,-11.45 0,-1.51 0.15,-2.952 0.448,-4.323 0.298,-1.372 0.795,-2.584 1.49,-3.638 0.696,-1.053 1.611,-1.898 2.744,-2.534 1.133,-0.636 2.534,-0.954 4.204,-0.954 1.431,0 2.713,0.219 3.846,0.656 1.133,0.437 2.057,0.934 2.773,1.491 z"
         style="fill:#485683;fill-opacity:1;fill-rule:nonzero;stroke:none"
         id="path46"
         inkscape:connector-curvature="0" /></g><g
       id="g48"
       transform="translate(339.4017,78.9819)"><path
         d="m 0,0 c -1.192,0.397 -2.325,0.596 -3.399,0.596 -1.71,0 -3.061,-0.467 -4.055,-1.401 -0.994,-0.935 -1.61,-2.117 -1.848,-3.548 v -20.871 h -4.771 V 4.591 h 3.34 L -9.839,0.954 H -9.6 c 0.755,1.352 1.659,2.395 2.713,3.131 1.053,0.735 2.395,1.103 4.025,1.103 1.153,0 2.445,-0.199 3.876,-0.597 z"
         style="fill:#485683;fill-opacity:1;fill-rule:nonzero;stroke:none"
         id="path50"
         inkscape:connector-curvature="0" /></g><g
       id="g52"
       transform="translate(354.9965,64.2528)"><path
         d="M 0,0 1.67,-5.725 H 1.968 L 3.28,0.06 9.064,19.32 h 4.83 L 5.069,-7.454 c -0.676,-1.948 -1.342,-3.836 -1.998,-5.665 -0.656,-1.829 -1.382,-3.459 -2.177,-4.89 -0.794,-1.431 -1.689,-2.574 -2.683,-3.429 -0.993,-0.855 -2.147,-1.282 -3.458,-1.282 -1.432,0 -2.604,0.199 -3.519,0.597 l 0.835,4.114 c 0.517,-0.198 1.014,-0.298 1.491,-0.298 1.113,0 2.186,0.586 3.22,1.759 1.033,1.173 1.888,3.191 2.564,6.053 L -12.642,19.32 h 5.486 z"
         style="fill:#485683;fill-opacity:1;fill-rule:nonzero;stroke:none"
         id="path54"
         inkscape:connector-curvature="0" /></g><g
       id="g56"
       transform="translate(384.8834,80.1149)"><path
         d="M 0,0 C -2.027,0 -3.627,-0.527 -4.8,-1.58 -5.973,-2.634 -6.798,-4.234 -7.275,-6.381 V -21.17 c 0.716,-0.556 1.531,-0.984 2.445,-1.282 0.914,-0.297 2.127,-0.447 3.638,-0.447 2.743,0 4.919,1.024 6.529,3.072 1.61,2.047 2.416,5.058 2.416,9.033 0,1.63 -0.14,3.111 -0.418,4.443 C 7.057,-5.019 6.61,-3.886 5.993,-2.952 5.377,-2.017 4.582,-1.292 3.608,-0.775 2.634,-0.258 1.431,0 0,0 m -12.045,3.458 h 3.279 l 0.895,-3.577 h 0.238 c 0.915,1.391 2.097,2.454 3.549,3.19 1.451,0.735 3.11,1.103 4.979,1.103 3.975,0 6.937,-1.173 8.885,-3.518 1.948,-2.346 2.921,-6.182 2.921,-11.509 0,-2.504 -0.327,-4.761 -0.983,-6.769 -0.656,-2.007 -1.58,-3.706 -2.773,-5.098 -1.192,-1.391 -2.634,-2.464 -4.323,-3.22 -1.69,-0.755 -3.568,-1.133 -5.636,-1.133 -1.471,0 -2.633,0.089 -3.488,0.268 -0.855,0.179 -1.779,0.487 -2.773,0.925 v -12.404 h -4.77 z"
         style="fill:#485683;fill-opacity:1;fill-rule:nonzero;stroke:none"
         id="path58"
         inkscape:connector-curvature="0" /></g><g
       id="g60"
       transform="translate(400.3591,83.5732)"><path
         d="M 0,0 H 4.651 V 5.904 L 9.422,7.275 V 0 h 8.11 v -4.174 h -8.11 v -16.518 c 0,-2.067 0.258,-3.528 0.775,-4.383 0.517,-0.855 1.391,-1.282 2.624,-1.282 1.034,0 1.908,0.109 2.624,0.328 0.715,0.219 1.51,0.507 2.385,0.865 l 1.073,-3.638 c -1.073,-0.517 -2.246,-0.934 -3.518,-1.252 -1.272,-0.318 -2.644,-0.477 -4.114,-0.477 -2.425,0 -4.135,0.686 -5.129,2.057 -0.994,1.371 -1.491,3.667 -1.491,6.887 V -4.174 H 0 Z"
         style="fill:#485683;fill-opacity:1;fill-rule:nonzero;stroke:none"
         id="path62"
         inkscape:connector-curvature="0" /></g><g
       id="g64"
       transform="translate(426.5518,68.6655)"><path
         d="m 0,0 c 0,-1.511 0.149,-2.962 0.447,-4.353 0.298,-1.392 0.766,-2.604 1.401,-3.638 0.637,-1.033 1.471,-1.868 2.505,-2.504 1.034,-0.636 2.286,-0.954 3.757,-0.954 5.407,-0.04 8.11,3.776 8.11,11.449 0,1.551 -0.149,3.021 -0.447,4.413 C 15.475,5.804 15.007,7.017 14.371,8.05 13.735,9.084 12.9,9.909 11.867,10.525 10.833,11.141 9.581,11.449 8.11,11.449 2.703,11.489 0,7.673 0,0 m -4.95,0 c 0,5.049 1.124,8.915 3.37,11.598 2.246,2.684 5.476,4.025 9.69,4.025 2.226,0 4.164,-0.367 5.814,-1.103 1.65,-0.735 3.012,-1.788 4.084,-3.16 1.074,-1.372 1.869,-3.021 2.386,-4.949 0.517,-1.929 0.775,-4.066 0.775,-6.411 0,-5.049 -1.123,-8.915 -3.369,-11.599 -2.246,-2.683 -5.476,-4.025 -9.69,-4.025 -2.226,0 -4.165,0.368 -5.814,1.103 -1.65,0.736 -3.012,1.79 -4.085,3.161 -1.073,1.372 -1.869,3.022 -2.385,4.95 C -4.691,-4.482 -4.95,-2.345 -4.95,0"
         style="fill:#485683;fill-opacity:1;fill-rule:nonzero;stroke:none"
         id="path66"
         inkscape:connector-curvature="0" /></g><g
       id="g68"
       transform="translate(455.0712,68.4489)"><path
         d="M 0,0 C 0,1.073 0.308,1.918 0.924,2.534 1.54,3.151 2.365,3.459 3.399,3.459 4.472,3.459 5.327,3.151 5.963,2.534 6.599,1.918 6.917,1.073 6.917,0 6.917,-1.033 6.599,-1.868 5.963,-2.504 5.327,-3.14 4.472,-3.459 3.399,-3.459 2.365,-3.459 1.54,-3.14 0.924,-2.504 0.308,-1.868 0,-1.033 0,0"
         style="fill:#b3e5e4;fill-opacity:1;fill-rule:nonzero;stroke:none"
         id="path70"
         inkscape:connector-curvature="0" /></g><g
       id="g72"
       transform="translate(473.3226,68.4489)"><path
         d="m 0,0 c 0,-1.511 0.149,-2.962 0.447,-4.353 0.298,-1.392 0.766,-2.604 1.402,-3.638 0.636,-1.033 1.47,-1.868 2.504,-2.504 1.034,-0.636 2.286,-0.954 3.757,-0.954 5.407,-0.04 8.11,3.776 8.11,11.449 0,1.551 -0.149,3.021 -0.447,4.413 C 15.475,5.804 15.007,7.017 14.371,8.05 13.735,9.084 12.9,9.909 11.867,10.525 10.833,11.141 9.581,11.449 8.11,11.449 2.703,11.489 0,7.673 0,0 m -4.95,0 c 0,5.049 1.124,8.915 3.37,11.598 2.246,2.684 5.476,4.025 9.69,4.025 2.226,0 4.164,-0.367 5.814,-1.103 1.65,-0.735 3.012,-1.788 4.085,-3.16 1.073,-1.372 1.868,-3.021 2.385,-4.95 0.517,-1.928 0.775,-4.064 0.775,-6.41 0,-5.049 -1.123,-8.915 -3.369,-11.599 -2.246,-2.683 -5.476,-4.025 -9.69,-4.025 -2.226,0 -4.165,0.368 -5.814,1.104 -1.65,0.735 -3.012,1.789 -4.085,3.16 -1.073,1.372 -1.869,3.022 -2.385,4.95 C -4.691,-4.482 -4.95,-2.345 -4.95,0"
         style="fill:#b3e5e4;fill-opacity:1;fill-rule:nonzero;stroke:none"
         id="path74"
         inkscape:connector-curvature="0" /></g><g
       id="g76"
       transform="translate(513.6526,78.7653)"><path
         d="m 0,0 c -1.193,0.397 -2.326,0.596 -3.399,0.596 -1.71,0 -3.061,-0.467 -4.055,-1.401 -0.994,-0.935 -1.61,-2.117 -1.849,-3.548 v -20.871 h -4.77 V 4.591 h 3.339 l 0.895,-3.637 h 0.238 c 0.755,1.352 1.66,2.395 2.713,3.131 1.054,0.735 2.396,1.103 4.026,1.103 1.153,0 2.444,-0.199 3.876,-0.597 z"
         style="fill:#b3e5e4;fill-opacity:1;fill-rule:nonzero;stroke:none"
         id="path78"
         inkscape:connector-curvature="0" /></g><g
       id="g80"
       transform="translate(527.4564,57.0593)"><path
         d="m 0,0 c 2.028,0 3.617,0.507 4.77,1.521 1.154,1.013 1.968,2.594 2.445,4.74 v 15.266 c -1.59,0.756 -3.618,1.133 -6.082,1.133 -2.703,0 -4.831,-0.914 -6.381,-2.743 -1.55,-1.829 -2.325,-4.691 -2.325,-8.587 0,-1.67 0.139,-3.2 0.417,-4.592 C -6.877,5.347 -6.44,4.154 -5.844,3.16 -5.248,2.167 -4.473,1.391 -3.518,0.835 -2.564,0.278 -1.392,0 0,0 m 11.986,-4.89 c 0,-3.856 -1.024,-6.699 -3.071,-8.527 -2.048,-1.829 -5.079,-2.743 -9.094,-2.743 -2.385,0 -4.303,0.149 -5.754,0.447 -1.452,0.298 -2.694,0.686 -3.728,1.163 l 1.253,4.055 c 0.914,-0.358 1.928,-0.696 3.041,-1.014 1.113,-0.318 2.564,-0.477 4.353,-0.477 1.67,0 3.032,0.149 4.085,0.447 1.053,0.298 1.898,0.795 2.534,1.491 0.636,0.696 1.074,1.59 1.312,2.684 0.238,1.093 0.358,2.395 0.358,3.905 v 2.863 H 7.036 C 6.241,-1.75 5.228,-2.634 3.995,-3.25 2.763,-3.866 1.153,-4.174 -0.835,-4.174 c -4.015,0 -6.967,1.252 -8.856,3.757 -1.888,2.504 -2.832,6.4 -2.832,11.687 0,5.089 1.213,8.955 3.638,11.598 2.425,2.644 6.003,3.966 10.733,3.966 2.266,0 4.204,-0.178 5.815,-0.537 1.61,-0.357 3.051,-0.775 4.323,-1.252 z"
         style="fill:#b3e5e4;fill-opacity:1;fill-rule:nonzero;stroke:none"
         id="path82"
         inkscape:connector-curvature="0" /></g><path
       style="fill:#588bab;fill-opacity:1;fill-rule:evenodd;stroke:none"
       d="m 69.5442,104.9857 h 39.139 v -36.063 c 0,-7.029 -5.751,-12.782 -12.78,-12.782 h -23.862 c -1.386,0 -1.527,-0.146 -2.327,-1.214 -2.012,-2.67 -4.674,-5.05 -7.831,-7.029 -3.104,2.337 -5.121,6.051 -5.121,10.214 v 34.093 c 0,7.03 5.751,12.781 12.782,12.781"
       id="path86" /><g
       id="g88"
       transform="translate(108.6837,104.9855)"><path
         d="m 0,0 h 11.982 c 7.03,0 12.781,-5.754 12.781,-12.781 v -34.093 c 0,-7.027 -5.754,-12.781 -12.781,-12.781 h -5.26 c -0.865,0 -1.498,-0.129 -0.649,-1.195 3.563,-4.474 8.51,-8.299 14.663,-10.412 1.066,-0.367 0.647,-1.921 -0.399,-1.962 -0.663,-0.027 -1.329,-0.041 -2.001,-0.041 -12.97,0 -24.29,5.101 -30.319,12.674 -0.849,1.063 -0.885,0.936 -2.279,0.936 H -39.14 c -2.867,0 -5.522,0.957 -7.66,2.567 3.157,1.979 5.819,4.359 7.83,7.029 0.801,1.068 0.942,1.215 2.327,1.215 h 23.862 c 7.03,0 12.781,5.752 12.781,12.781 z"
         style="fill:#485683;fill-opacity:1;fill-rule:evenodd;stroke:none"
         id="path90"
         inkscape:connector-curvature="0" /></g><g
       id="g92"
       transform="translate(44.7811,119)"><path
         d="m 0,0 h 51.122 c 7.03,0 12.781,-5.752 12.781,-12.781 v -1.233 h -39.14 c -7.031,0 -12.782,-5.751 -12.782,-12.781 v -34.093 c 0,-4.163 2.018,-7.877 5.122,-10.214 -3.998,-2.505 -8.791,-4.366 -14.068,-5.358 -2.942,-0.551 -5.948,-0.819 -8.948,-0.814 -1.614,0.002 -2.034,1.97 -0.8,2.488 2.611,1.097 5.77,2.864 8.001,4.61 2.115,1.657 3.946,3.56 5.417,5.646 1.101,1.57 0.418,1.671 -0.944,1.671 H 0 c -7.029,0 -12.781,5.751 -12.781,12.782 v 37.296 C -12.781,-5.751 -7.03,0 0,0"
         style="fill:#b3e5e4;fill-opacity:1;fill-rule:evenodd;stroke:none"
         id="path94"
         inkscape:connector-curvature="0" /></g><path
       id="rect46"
       style="color:#000000;display:inline;overflow:visible;visibility:visible;opacity:1;fill:#ffffff;fill-opacity:1;fill-rule:nonzero;stroke:none;stroke-width:0.9375;stroke-linecap:round;stroke-linejoin:round;stroke-miterlimit:4;stroke-dasharray:none;stroke-dashoffset:0;stroke-opacity:1;marker:none;enable-background:accumulate"
       d="m 83.6297,80.3091 0.0557,-0.001 0.0527,-10e-4 0.0527,-0.003 0.0542,-0.006 0.0513,-0.006 0.0542,-0.007 0.0498,-0.009 0.0527,-0.0103 0.0498,-0.009 0.0513,-0.0132 0.0498,-0.0132 0.0483,-0.0147 h 0.001 l 0.0483,-0.0161 0.0483,-0.0176 0.0483,-0.019 0.0469,-0.019 0.0469,-0.0205 0.0469,-0.022 0.0439,-0.022 h 10e-4 l 0.0439,-0.0234 h 0.001 l 0.0425,-0.0249 0.0439,-0.0249 0.0439,-0.0278 0.041,-0.0278 0.0425,-0.0278 0.0396,-0.0293 0.041,-0.0308 0.0381,-0.0322 0.0396,-0.0322 0.0366,-0.0337 h 0.001 l 0.0352,-0.0352 h 0.001 l 0.0352,-0.0337 h 10e-4 l 0.0337,-0.0366 0.0352,-0.0366 0.0322,-0.0366 0.0337,-0.0396 0.0322,-0.0395 0.0293,-0.0395 0.0308,-0.041 0.0278,-0.041 0.0278,-0.0425 0.0264,-0.0425 0.0264,-0.0439 0.0234,-0.0439 0.0249,-0.0454 0.022,-0.0454 0.022,-0.0454 0.0205,-0.0469 0.0191,-0.0469 0.0176,-0.0483 0.019,-0.0483 0.0146,-0.0498 0.0146,-0.0483 0.0132,-0.0498 0.0132,-0.0513 0.0103,-0.0513 0.0103,-0.0513 0.009,-0.0513 0.007,-0.0527 0.006,-0.0527 0.004,-0.0527 0.004,-0.0527 0.001,-0.0542 v -0.0542 -0.0396 l -0.001,-0.0366 -0.001,-0.0395 -10e-4,-0.0381 -0.003,-0.0366 -0.004,-0.0381 -0.004,-0.0366 -0.006,-0.0366 -0.004,-0.0381 -0.006,-0.0366 -0.007,-0.0352 -0.007,-0.0381 h -10e-4 l -0.007,-0.0352 -0.009,-0.0352 -0.009,-0.0366 -0.0103,-0.0352 -0.0102,-0.0337 v -10e-4 l -0.0117,-0.0337 v -10e-4 L 85.6065,77.5187 85.5948,77.485 85.5816,77.4498 85.5684,77.4161 85.5538,77.3839 85.5392,77.3502 85.526,77.318 h -10e-4 l -0.0161,-0.0337 -0.0161,-0.0308 v -0.001 l -0.0161,-0.0322 -0.0176,-0.0308 -0.019,-0.0308 -0.0176,-0.0308 -0.019,-0.0308 -0.019,-0.0293 v -0.001 l -0.0191,-0.0293 -0.022,-0.0293 -0.0205,-0.0278 v -0.001 l -0.0205,-0.0293 -0.022,-0.0278 -0.022,-0.0278 -0.0234,-0.0264 v -0.001 l -0.0234,-0.0264 h -0.001 l -0.022,-0.0264 -0.0249,-0.0264 v -0.002 L 85.1388,76.761 85.1154,76.7361 85.089,76.7097 85.0641,76.6848 h -10e-4 L 85.0382,76.6614 85.0104,76.638 84.984,76.6146 84.9562,76.5926 v -0.001 l -0.0278,-0.022 -0.0278,-0.022 -0.0293,-0.0205 -0.0278,-0.022 -0.0308,-0.0205 -0.0293,-0.019 -0.0293,-0.019 -0.0308,-0.019 -0.0308,-0.019 h -10e-4 L 84.6607,76.391 v -0.002 l -0.0308,-0.0161 v -0.001 c -0.11801,-0.062 -0.13906,-0.54052 -0.0601,-0.60352 v -10e-4 l 0.0146,-0.0117 v -0.001 l 0.0161,-0.0132 0.0147,-0.0132 0.0132,-0.0117 v -10e-4 l 0.0161,-0.0147 0.0146,-0.0132 0.0146,-0.0146 0.0132,-0.0146 0.0146,-0.0147 0.0132,-0.0146 v -0.001 l 0.0132,-0.0132 0.0132,-0.0147 0.0132,-0.0161 0.0132,-0.0146 0.0117,-0.0161 0.0132,-0.0161 0.0117,-0.0161 0.0117,-0.0176 0.0117,-0.0161 0.0117,-0.0161 0.0103,-0.0176 0.0117,-0.0161 0.0103,-0.0176 0.0117,-0.0161 v -10e-4 l 0.0102,-0.0161 0.0103,-0.0176 0.009,-0.0176 v -0.001 l 0.0102,-0.0176 0.009,-0.0176 0.009,-0.0176 0.0103,-0.019 0.009,-0.0176 v -0.001 l 0.007,-0.0176 0.009,-0.019 0.007,-0.019 0.009,-0.019 0.006,-0.019 0.009,-0.019 0.006,-0.019 0.007,-0.0205 0.006,-0.019 v -0.001 l 0.006,-0.019 0.004,-0.019 0.006,-0.0205 0.006,-0.019 0.004,-0.0205 0.006,-0.0205 0.003,-0.0205 0.004,-0.0205 0.004,-0.019 v -0.002 l 0.004,-0.0205 0.003,-0.0205 v -0.002 l 0.003,-0.019 v -0.001 l 0.001,-0.0205 0.003,-0.022 10e-4,-0.0205 0.003,-0.0205 v -0.001 l 0.001,-0.0205 v -0.022 l 0.001,-0.0205 v -0.001 -0.0205 -0.022 -0.0381 l -0.001,-0.0366 v -0.001 l -0.003,-0.0366 -0.003,-0.0366 -0.004,-0.0366 -0.004,-0.0366 -0.007,-0.0352 -0.007,-0.0366 -0.006,-0.0352 -0.0103,-0.0352 -0.009,-0.0352 -0.0103,-0.0337 -0.0102,-0.0352 -0.0117,-0.0322 v -0.001 l -0.0132,-0.0322 -0.0132,-0.0337 -0.0146,-0.0322 -0.0147,-0.0322 -0.0161,-0.0308 -0.0161,-0.0322 -0.0176,-0.0308 -0.0176,-0.0308 -0.019,-0.0293 -0.019,-0.0293 -0.0205,-0.0278 v -10e-4 l -0.0205,-0.0278 -0.0205,-0.0278 -0.022,-0.0278 -0.022,-0.0264 -0.0249,-0.0264 -0.0234,-0.0264 -0.0249,-0.0249 -0.0249,-0.0249 -0.0249,-0.022 -0.0264,-0.0249 -0.0278,-0.022 -0.0264,-0.022 -0.0278,-0.022 -0.0293,-0.0205 -0.0278,-0.019 -0.0308,-0.0205 -0.0278,-0.0176 -0.0322,-0.0176 -0.0308,-0.019 -0.0308,-0.0161 -0.0308,-0.0161 -0.0337,-0.0147 -0.0308,-0.0132 -0.0337,-0.0132 -0.0337,-0.0132 -0.0337,-0.0117 -0.0337,-0.0117 -0.0352,-0.0103 -0.0352,-0.009 -0.0352,-0.009 -0.0337,-0.007 -0.0366,-0.007 -0.0366,-0.006 -0.0366,-0.006 -0.0366,-0.003 -0.0366,-0.003 -0.0366,-0.004 H 83.6681 83.63 83.5919 83.5553 l -0.0366,0.004 -0.0381,0.003 -0.0366,0.003 -0.0352,0.006 -0.0366,0.006 -0.0366,0.007 -0.0337,0.007 -0.0352,0.009 h -0.001 l -0.0337,0.009 -0.0337,0.0103 -0.0351,0.0117 -0.0352,0.0117 -0.0322,0.0132 -0.0322,0.0132 h -10e-4 l -0.0308,0.0132 -0.0322,0.0147 h -0.001 l -0.0308,0.0161 -0.0322,0.0161 -0.0293,0.019 -0.0308,0.0176 -0.0293,0.0176 -0.0293,0.0205 -0.0308,0.019 -0.0278,0.0205 -0.0278,0.022 -0.0264,0.022 -0.0264,0.022 -0.0278,0.0249 -0.0249,0.022 -0.0249,0.0249 -0.0249,0.0249 -0.0234,0.0264 -0.0234,0.0264 -0.022,0.0264 -0.022,0.0278 h -10e-4 l -0.0205,0.0278 -0.0205,0.0278 v 10e-4 l -0.0205,0.0278 -0.019,0.0293 -0.019,0.0293 -0.0176,0.0308 -0.0176,0.0308 -0.0161,0.0322 -0.0161,0.0308 -0.0146,0.0322 -0.0147,0.0322 -0.0132,0.0337 -0.0132,0.0322 v 0.001 l -0.0117,0.0322 -0.0103,0.0352 -0.0102,0.0337 h -0.001 l -0.007,0.0352 h -0.001 l -0.009,0.0352 -0.006,0.0352 h -0.001 l -0.006,0.0366 h -10e-4 l -0.004,0.0352 h -0.001 l -0.004,0.0366 -0.004,0.0366 -0.001,0.0366 h -10e-4 l -0.001,0.0366 -0.001,0.001 v 0.0366 h -10e-4 v 0.0381 h -0.001 c 0,0.044 0.003,0.0869 0.007,0.12891 l 10e-4,0.0205 0.001,0.022 h 0.001 l 0.007,0.063 h 0.001 l 0.0205,0.10254 0.009,0.0395 h 0.001 l 0.004,0.0205 0.006,0.019 0.0117,0.0396 h 0.001 l 0.006,0.0205 0.007,0.019 0.007,0.019 0.0146,0.0381 0.0249,0.0557 v 0.002 l 0.007,0.0176 0.0103,0.019 0.009,0.0176 0.0103,0.0176 0.009,0.0176 v 10e-4 l 0.0103,0.0176 0.019,0.0337 v 0.002 l 0.0117,0.0161 0.0103,0.0176 0.0103,0.0161 0.0117,0.0176 0.0117,0.0161 0.0117,0.0161 0.0117,0.0176 0.0117,0.0161 0.0132,0.0161 0.0117,0.0161 0.0132,0.0147 0.0132,0.0161 0.0132,0.0146 0.0146,0.0132 v 0.001 l 0.0117,0.0147 0.0147,0.0146 0.0146,0.0146 0.0132,0.0147 0.0147,0.0132 0.0146,0.0146 v 0.001 l 0.0146,0.0117 0.0147,0.0132 0.0161,0.0132 v 0.001 l 0.0161,0.0117 v 0.001 l 0.0146,0.0132 c 0.077,0.062 0.0308,0.53333 -0.0762,0.59033 l -0.0308,0.0176 h -0.001 l -0.0293,0.019 -0.0322,0.0176 -0.0293,0.019 h -0.001 l -0.0293,0.019 -0.0293,0.0205 h -0.001 l -0.0293,0.0205 -0.0278,0.0205 -0.0278,0.022 -0.0293,0.022 -0.0278,0.022 -0.0278,0.022 -0.0278,0.0249 -0.0264,0.022 -0.0249,0.0249 -0.0264,0.0249 -0.0249,0.0264 h -10e-4 l -0.0234,0.0249 h -10e-4 l -0.0234,0.0249 -0.0249,0.0264 -0.0234,0.0278 -0.0234,0.0264 -0.0234,0.0278 -0.022,0.0278 -0.022,0.0278 -0.0205,0.0293 h -10e-4 l -0.019,0.0278 -0.022,0.0308 -0.019,0.0293 -0.019,0.0308 -0.0176,0.0308 h -10e-4 l -0.0176,0.0308 -0.019,0.0308 -0.0176,0.0308 -0.0176,0.0322 -0.0161,0.0322 -0.0146,0.0337 -0.0161,0.0322 -0.0132,0.0337 -0.0161,0.0322 -0.0117,0.0337 -0.0132,0.0337 -0.0117,0.0337 -0.0132,0.0352 -0.0102,0.0352 -0.0117,0.0352 -0.009,0.0352 -0.0103,0.0352 -0.009,0.0366 -0.007,0.0352 -0.009,0.0366 -0.006,0.0366 -0.007,0.0366 -0.006,0.0366 -0.004,0.0381 -0.004,0.0366 -0.004,0.0381 -0.003,0.0366 -0.003,0.0381 -10e-4,0.0396 v 0.0366 l -0.001,0.0395 0.001,0.0542 10e-4,0.0542 0.003,0.0527 0.006,0.0527 0.006,0.0527 0.007,0.0527 0.009,0.0513 0.009,0.0513 h 0.001 l 0.0102,0.0513 0.0117,0.0513 0.0147,0.0498 0.0146,0.0483 0.0147,0.0498 0.019,0.0483 0.0176,0.0483 0.019,0.0469 0.0205,0.0469 0.022,0.0454 0.022,0.0454 0.0234,0.0454 0.0249,0.0439 0.0264,0.0439 0.0264,0.0425 0.0278,0.0425 0.0293,0.041 0.0293,0.041 0.0293,0.0396 0.0322,0.0395 0.0322,0.0395 0.0337,0.0366 0.0351,0.0366 0.0337,0.0366 h 10e-4 l 0.0351,0.0337 h 0.001 l 0.0352,0.0352 h 0.001 l 0.0366,0.0337 0.0381,0.0322 0.0396,0.0322 0.0395,0.0308 0.041,0.0293 0.041,0.0278 h 10e-4 l 0.041,0.0278 0.0439,0.0278 0.0425,0.0249 0.0439,0.0249 h 0.001 l 0.0439,0.0234 h 0.001 l 0.0439,0.022 0.0469,0.022 0.0469,0.0205 0.0469,0.019 0.0469,0.019 0.0483,0.0176 0.0498,0.0161 0.0498,0.0146 0.0483,0.0132 h 0.001 l 0.0498,0.0132 0.0513,0.009 0.0513,0.0103 0.0513,0.009 0.0542,0.007 0.0513,0.006 0.0527,0.006 0.0542,0.003 0.0527,10e-4 z m 0,10.47656 c 1.446,0 2.75758,-0.60929 3.70458,-1.59229 0.967,-1.003 1.56592,-2.39882 1.56592,-3.94482 h 0.007 v -0.0674 H 78.353 v 0.0674 h 0.007 c 0,1.546 0.59792,2.94182 1.56592,3.94482 0.947,0.983 2.25812,1.59229 3.70313,1.59229 z m 0,3.72949 c -2.49201,0 -4.75126,-1.04865 -6.38526,-2.74365 -1.615,-1.675 -2.61475,-3.98395 -2.61475,-6.52295 h 0.007 v -0.21533 c -0.648,-0.28 -1.10449,-0.92485 -1.10449,-1.67285 V 70.65431 c 0,-1.002 0.8198,-1.82227 1.8208,-1.82227 h 16.55273 c 1.002,0 1.82227,0.82027 1.82227,1.82227 v 12.70606 c 0,0.747 -0.4565,1.39285 -1.1045,1.67285 l -0.001,0.21533 h 0.009 c 0,2.539 -1.00075,4.84795 -2.61475,6.52295 -1.634,1.695 -3.89272,2.74365 -6.38671,2.74365 z"
       inkscape:connector-curvature="0" /></g></svg>